<svg id="Слой_1" data-name="Слой 1" xmlns="http://www.w3.org/2000/svg" viewBox="0 0 634.5 634.5"><defs><style>.cls-1{fill:#22565a;}.cls-2{fill:#fff;}</style></defs><path class="cls-1" d="M917.25,543.82c0-175.21-142-317.25-317.25-317.25s-317.25,142-317.25,317.25c0,158.35,116,289.6,267.68,313.4V635.53H469.88V543.82h80.55V473.93c0-79.52,47.36-123.44,119.83-123.44,34.71,0,71,6.2,71,6.2v78.07h-40c-39.41,0-51.7,24.46-51.7,49.55v59.51h88l-14.07,91.71H649.57V857.22C801.24,833.42,917.25,702.17,917.25,543.82Z" transform="translate(-282.75 -226.57)"/><path class="cls-2" d="M723.49,635.53l14.07-91.71h-88V484.31c0-25.09,12.29-49.55,51.7-49.55h40V356.69s-36.31-6.2-71-6.2c-72.47,0-119.83,43.92-119.83,123.44v69.89H469.88v91.71h80.55V857.22a321,321,0,0,0,99.14,0V635.53Z" transform="translate(-282.75 -226.57)"/></svg>