<svg id="Слой_3" data-name="Слой 3" xmlns="http://www.w3.org/2000/svg" viewBox="0 0 441.21 513.94"><defs><style>.cls-1{fill:#fff;stroke:#fff;}.cls-1,.cls-2{stroke-miterlimit:10;}.cls-2{fill:#ed2f79;stroke:#ed2f79;}</style></defs><path class="cls-1" d="M515.84,584.07a48.4,48.4,0,0,1,12.68-13.85c3.33-2.44,9.53-6.87,18.31-7.75,4.48-.44,11.4-.14,12,2.12s-6.22,3.9-12.21,11.27a34.85,34.85,0,0,0-6.8,14.55c-.54,2.57-2.4,12.26,2.81,22.07,1.64,3.07,3.89,7.31,8.69,9.86,6.19,3.3,12.7,1.71,19.72,0a57.94,57.94,0,0,0,16.2-6.81,61.37,61.37,0,0,0,17.61-14.32,55.14,55.14,0,0,0,10.33-18.78c1.22-4,2.49-8.34,1.88-14.09a32.14,32.14,0,0,0-4.7-13.15c-4-6.51-8.87-9.72-16-14.55-7.65-5.21-16.76-11.43-23.48-16.44-9.67-7.21-16.76-12.58-23.95-21.6-4.33-5.44-8.87-11.24-11.74-20.19a54.43,54.43,0,0,1-1.88-24.65A102.26,102.26,0,0,1,548,424.89c7-11.54,14.47-18.65,24.42-27.94a232,232,0,0,1,34-26.3,200.39,200.39,0,0,1,28.41-13.15c14.68-5.44,30.3-11.23,50.48-10.33,10.9.49,22.44,1,33.81,8.93,12.66,8.82,17.77,21.7,20,27.23a66.43,66.43,0,0,1,4.69,23.48c.16,13.27-3.87,23.13-6.57,29.58a96.86,96.86,0,0,1-9.39,16.91c-3.81,5.52-7.55,9.47-15,17.37-9.22,9.75-16,15.86-18.78,18.31a155.06,155.06,0,0,1-15,11.74c-4.17,2.87-10.46,7.21-11.5,6.11-.46-.49,0-2.19,4-7.51,3-3.38,7.93-8.76,14.09-15.27,15.44-16.3,18-17.71,23.95-25.59,6.72-9,12.35-16.52,14.79-27.94,2.15-10.09,2.11-24.65,2.11-24.65a25.85,25.85,0,0,0-17.83-21.24c-17.51-6.31-39.07.37-45.56,2.46-16.18,5.2-27.24,12.69-34,17.37a152.06,152.06,0,0,0-22.77,19.25l-18.78,23.48a74,74,0,0,0-8.93,23c-1.08,5.37-2.25,11.44-.93,19.25a39.67,39.67,0,0,0,6.1,16c3.54,5.19,7.91,8.47,18.31,14.09,22.87,12.34,28,10.65,37.22,19.36a43.25,43.25,0,0,1,12.09,18c4.64,13.85.09,26.3-1.88,31.69-4.07,11.16-10.59,18.12-14.56,22.26-7.75,8.11-15.41,12.35-21.6,15.78a105.13,105.13,0,0,1-21.13,8.92,103.2,103.2,0,0,1-20.66,3.76,116.72,116.72,0,0,1-20.66,0c7.59,7,14.18,12.65,19.25,16.9,12.29,10.32,16.58,13,20.19,15a82.69,82.69,0,0,0,17.61,7.19l7.92,5.67q.39,11.65.77,23.3c-.37,10.27-.55,20.93-.47,31.93q.07,11,.47,21.6L618.91,774c.8,1.48,2.42,3.91,5.16,4.7,3.47,1,6.81-1.15,9.86-3.29a160.71,160.71,0,0,0,18.79-15.49,17.22,17.22,0,0,0,3.28-7,18.34,18.34,0,0,0-.93-9.86c-2.39-6.89-8.07-25.3-16-50.24L635.81,674l4.23-5.17,11.74-4.7a171.14,171.14,0,0,0,70.43-55.4,177.45,177.45,0,0,0,21.6-39.45,182.62,182.62,0,0,0,11.27-43.2c1.67-20.18,2.44-37.27,2.82-50.24.51-17.47.79-27.09,0-40.86-1-17-3.13-32.52-4.22-40.38-1.86-13.3-4.23-24-4.23-36.63,0-1.4-.47-14.55-.47-14.55l.47-7.05c-1.8-.85-4.37-2-7.51-3.28-5.2-2.08-17-6.36-35.22-8.46-16.57-1.9-29.28-.93-40.85,0-13.11,1.07-26,2.11-42.27,6.58-11,3-32.8,9.25-55.41,26.29-16.86,12.73-26.93,26-33.8,35.22a210.55,210.55,0,0,0-20.2,33.34c-5.56,11.14-10.49,21-14.08,35.22-4.29,17-4.27,30.61-4.24,42.5a172.11,172.11,0,0,0,2.36,31.69A152.9,152.9,0,0,0,515.84,584.07Z" transform="translate(-339.55 -265.52)"/><path class="cls-2" d="M505.51,679.16c-5.87,8.31-11,15.11-14.8,20.08C479.54,713.77,475.26,718,471.93,721a92.25,92.25,0,0,1-14.67,10.69c-8.94,5.49-14.3,8.69-18.67,6.69-3.29-1.51-4.49-5.29-6-10.22-2.62-8.63-2.23-15.49-2-22.18.35-10.35.3-20.67,0-27.24a158.41,158.41,0,0,0-3.76-27.23c-2.91-13.54-6.52-22.39-11.74-35.69-7.09-18.08-13.74-36.32-20.66-54.47-4.11-10.8-10.21-27.1-17.37-47.43-9.63-31-17.73-58.76-24.42-82.64-4.58-16.38-9.92-36-12-62-1.21-15.36-1-29.74,3.52-45.7,2.18-7.66,5-17.09,12.68-26.85A66.58,66.58,0,0,1,383,277a249,249,0,0,1,43-9.15,255.35,255.35,0,0,1,60.58,0,346.85,346.85,0,0,1,39.44,7.39c8.77,2.07,16.1,4.08,21.49,5.64-2.77,1.95-7,4.84-12.33,8.1-15.51,9.49-24.33,12.32-33.81,17.61A106.54,106.54,0,0,0,472.4,330.5c7.88-4.68,17.83-10.29,29.58-16.2a469.25,469.25,0,0,1,43-19c15-5.74,31.77-12.12,54.94-16.91,19.9-4.11,35.21-5.12,47.9-5.95,16.55-1.09,27.69-1.76,43,0A173.65,173.65,0,0,1,726,280.14a167.9,167.9,0,0,1,32.42,15.15c2.09,1.22,23.08,13.52,21.82,16.2-.53,1.1-5,.84-21.82-4.93A163.15,163.15,0,0,0,726,295.29c-18.32-4.29-32.65-4.3-46.49-4.23a252.65,252.65,0,0,0-52.35,5.63c-11.08,2.45-24.33,5.37-40.53,12.91-19.3,9-31.93,19.47-42,27.95a227.21,227.21,0,0,0-37,39.44,240.34,240.34,0,0,0-23.95,41.56c-5.11,11.25-12.59,28-16.9,51.42a210,210,0,0,0-1.41,63.39c2.78,21.95,8.28,38,12,48.6A222.26,222.26,0,0,0,498.11,627c5.35,8.77,12.44,20.2,25,32.4a142.2,142.2,0,0,0,19,15.5l18.32,14.79a110.35,110.35,0,0,1-29.94-11.63c-5.38-3.09-11.46-7.26-17.61-5.28C509.29,674,506.94,676.86,505.51,679.16Z" transform="translate(-339.55 -265.52)"/></svg>